<mxfile host="app.diagrams.net" modified="2024-06-22T20:43:10.927Z" agent="Mozilla/5.0 (X11; Linux x86_64) AppleWebKit/537.36 (KHTML, like Gecko) Chrome/126.0.0.0 Safari/537.36" etag="MQD02GckGzLXOrzVGU6p" version="24.5.2" type="device">
  <diagram name="Page-1" id="8_4V1wRo4erUxLzGRJ6f">
    <mxGraphModel dx="372" dy="557" grid="1" gridSize="10" guides="1" tooltips="1" connect="1" arrows="1" fold="1" page="1" pageScale="1" pageWidth="850" pageHeight="1100" math="0" shadow="0">
      <root>
        <mxCell id="0" />
        <mxCell id="1" parent="0" />
        <mxCell id="SWC2-Tq3VUFKpPYct_-c-1" value="Cryptograph" style="rounded=0;whiteSpace=wrap;html=1;fillColor=none;dashed=1;verticalAlign=top;" parent="1" vertex="1">
          <mxGeometry x="270" y="300" width="300" height="80" as="geometry" />
        </mxCell>
        <mxCell id="QzMQ5G4TthDNWNRElYCQ-8" style="edgeStyle=orthogonalEdgeStyle;rounded=0;orthogonalLoop=1;jettySize=auto;html=1;exitX=0.5;exitY=1;exitDx=0;exitDy=0;entryX=0.5;entryY=0;entryDx=0;entryDy=0;" parent="1" source="QzMQ5G4TthDNWNRElYCQ-1" target="QzMQ5G4TthDNWNRElYCQ-3" edge="1">
          <mxGeometry relative="1" as="geometry" />
        </mxCell>
        <mxCell id="QzMQ5G4TthDNWNRElYCQ-9" style="edgeStyle=orthogonalEdgeStyle;rounded=0;orthogonalLoop=1;jettySize=auto;html=1;exitX=0.5;exitY=1;exitDx=0;exitDy=0;" parent="1" source="QzMQ5G4TthDNWNRElYCQ-1" target="QzMQ5G4TthDNWNRElYCQ-4" edge="1">
          <mxGeometry relative="1" as="geometry" />
        </mxCell>
        <mxCell id="QzMQ5G4TthDNWNRElYCQ-10" style="edgeStyle=orthogonalEdgeStyle;rounded=0;orthogonalLoop=1;jettySize=auto;html=1;exitX=0.5;exitY=1;exitDx=0;exitDy=0;" parent="1" source="QzMQ5G4TthDNWNRElYCQ-1" target="QzMQ5G4TthDNWNRElYCQ-2" edge="1">
          <mxGeometry relative="1" as="geometry" />
        </mxCell>
        <mxCell id="SWC2-Tq3VUFKpPYct_-c-19" style="edgeStyle=orthogonalEdgeStyle;rounded=0;orthogonalLoop=1;jettySize=auto;html=1;exitX=0.5;exitY=1;exitDx=0;exitDy=0;" parent="1" source="QzMQ5G4TthDNWNRElYCQ-1" target="SWC2-Tq3VUFKpPYct_-c-18" edge="1">
          <mxGeometry relative="1" as="geometry" />
        </mxCell>
        <mxCell id="QzMQ5G4TthDNWNRElYCQ-1" value="Cryptology" style="rounded=0;whiteSpace=wrap;html=1;" parent="1" vertex="1">
          <mxGeometry x="270" y="50" width="120" height="40" as="geometry" />
        </mxCell>
        <mxCell id="SWC2-Tq3VUFKpPYct_-c-2" style="edgeStyle=orthogonalEdgeStyle;rounded=0;orthogonalLoop=1;jettySize=auto;html=1;exitX=0.5;exitY=1;exitDx=0;exitDy=0;entryX=0;entryY=0.5;entryDx=0;entryDy=0;" parent="1" source="QzMQ5G4TthDNWNRElYCQ-2" target="SWC2-Tq3VUFKpPYct_-c-1" edge="1">
          <mxGeometry relative="1" as="geometry" />
        </mxCell>
        <mxCell id="QzMQ5G4TthDNWNRElYCQ-2" value="Steganography" style="rounded=0;whiteSpace=wrap;html=1;" parent="1" vertex="1">
          <mxGeometry x="180" y="130" width="120" height="40" as="geometry" />
        </mxCell>
        <mxCell id="QzMQ5G4TthDNWNRElYCQ-11" style="edgeStyle=orthogonalEdgeStyle;rounded=0;orthogonalLoop=1;jettySize=auto;html=1;exitX=0.5;exitY=1;exitDx=0;exitDy=0;" parent="1" source="QzMQ5G4TthDNWNRElYCQ-3" target="QzMQ5G4TthDNWNRElYCQ-5" edge="1">
          <mxGeometry relative="1" as="geometry" />
        </mxCell>
        <mxCell id="QzMQ5G4TthDNWNRElYCQ-12" style="edgeStyle=orthogonalEdgeStyle;rounded=0;orthogonalLoop=1;jettySize=auto;html=1;exitX=0.5;exitY=1;exitDx=0;exitDy=0;" parent="1" source="QzMQ5G4TthDNWNRElYCQ-3" target="QzMQ5G4TthDNWNRElYCQ-6" edge="1">
          <mxGeometry relative="1" as="geometry" />
        </mxCell>
        <mxCell id="QzMQ5G4TthDNWNRElYCQ-3" value="Cryptography" style="rounded=0;whiteSpace=wrap;html=1;" parent="1" vertex="1">
          <mxGeometry x="360" y="130" width="120" height="40" as="geometry" />
        </mxCell>
        <mxCell id="SWC2-Tq3VUFKpPYct_-c-3" style="edgeStyle=orthogonalEdgeStyle;rounded=0;orthogonalLoop=1;jettySize=auto;html=1;exitX=0.5;exitY=1;exitDx=0;exitDy=0;entryX=1;entryY=0.5;entryDx=0;entryDy=0;" parent="1" source="QzMQ5G4TthDNWNRElYCQ-4" target="SWC2-Tq3VUFKpPYct_-c-1" edge="1">
          <mxGeometry relative="1" as="geometry" />
        </mxCell>
        <mxCell id="SWC2-Tq3VUFKpPYct_-c-5" value="Breaks" style="edgeLabel;html=1;align=center;verticalAlign=middle;resizable=0;points=[];" parent="SWC2-Tq3VUFKpPYct_-c-3" vertex="1" connectable="0">
          <mxGeometry x="0.1265" y="-1" relative="1" as="geometry">
            <mxPoint as="offset" />
          </mxGeometry>
        </mxCell>
        <mxCell id="QzMQ5G4TthDNWNRElYCQ-4" value="Cryptanalysis" style="rounded=0;whiteSpace=wrap;html=1;" parent="1" vertex="1">
          <mxGeometry x="535" y="130" width="120" height="40" as="geometry" />
        </mxCell>
        <mxCell id="QzMQ5G4TthDNWNRElYCQ-16" style="edgeStyle=orthogonalEdgeStyle;rounded=0;orthogonalLoop=1;jettySize=auto;html=1;exitX=0.5;exitY=1;exitDx=0;exitDy=0;" parent="1" source="QzMQ5G4TthDNWNRElYCQ-5" target="QzMQ5G4TthDNWNRElYCQ-14" edge="1">
          <mxGeometry relative="1" as="geometry" />
        </mxCell>
        <mxCell id="QzMQ5G4TthDNWNRElYCQ-5" value="Transposition" style="rounded=0;whiteSpace=wrap;html=1;" parent="1" vertex="1">
          <mxGeometry x="280" y="210" width="120" height="40" as="geometry" />
        </mxCell>
        <mxCell id="QzMQ5G4TthDNWNRElYCQ-18" style="edgeStyle=orthogonalEdgeStyle;rounded=0;orthogonalLoop=1;jettySize=auto;html=1;exitX=0.25;exitY=1;exitDx=0;exitDy=0;entryX=0.75;entryY=0;entryDx=0;entryDy=0;" parent="1" source="QzMQ5G4TthDNWNRElYCQ-6" target="QzMQ5G4TthDNWNRElYCQ-14" edge="1">
          <mxGeometry relative="1" as="geometry">
            <Array as="points">
              <mxPoint x="470" y="270" />
              <mxPoint x="370" y="270" />
            </Array>
          </mxGeometry>
        </mxCell>
        <mxCell id="QzMQ5G4TthDNWNRElYCQ-19" style="edgeStyle=orthogonalEdgeStyle;rounded=0;orthogonalLoop=1;jettySize=auto;html=1;exitX=0.5;exitY=1;exitDx=0;exitDy=0;" parent="1" source="QzMQ5G4TthDNWNRElYCQ-6" target="QzMQ5G4TthDNWNRElYCQ-15" edge="1">
          <mxGeometry relative="1" as="geometry" />
        </mxCell>
        <mxCell id="QzMQ5G4TthDNWNRElYCQ-6" value="Substitution" style="rounded=0;whiteSpace=wrap;html=1;" parent="1" vertex="1">
          <mxGeometry x="440" y="210" width="120" height="40" as="geometry" />
        </mxCell>
        <mxCell id="SWC2-Tq3VUFKpPYct_-c-14" style="edgeStyle=orthogonalEdgeStyle;rounded=0;orthogonalLoop=1;jettySize=auto;html=1;exitX=0.5;exitY=1;exitDx=0;exitDy=0;" parent="1" source="QzMQ5G4TthDNWNRElYCQ-14" edge="1">
          <mxGeometry relative="1" as="geometry">
            <mxPoint x="370" y="440" as="targetPoint" />
          </mxGeometry>
        </mxCell>
        <mxCell id="SWC2-Tq3VUFKpPYct_-c-15" value="Enciphers" style="edgeLabel;html=1;align=center;verticalAlign=middle;resizable=0;points=[];" parent="SWC2-Tq3VUFKpPYct_-c-14" vertex="1" connectable="0">
          <mxGeometry x="-0.6053" relative="1" as="geometry">
            <mxPoint as="offset" />
          </mxGeometry>
        </mxCell>
        <mxCell id="QzMQ5G4TthDNWNRElYCQ-14" value="Cipher" style="rounded=0;whiteSpace=wrap;html=1;" parent="1" vertex="1">
          <mxGeometry x="280" y="330" width="120" height="40" as="geometry" />
        </mxCell>
        <mxCell id="SWC2-Tq3VUFKpPYct_-c-16" style="edgeStyle=orthogonalEdgeStyle;rounded=0;orthogonalLoop=1;jettySize=auto;html=1;exitX=0.5;exitY=1;exitDx=0;exitDy=0;" parent="1" source="QzMQ5G4TthDNWNRElYCQ-15" edge="1">
          <mxGeometry relative="1" as="geometry">
            <mxPoint x="459.9999999999999" y="440" as="targetPoint" />
          </mxGeometry>
        </mxCell>
        <mxCell id="SWC2-Tq3VUFKpPYct_-c-17" value="Encodes" style="edgeLabel;html=1;align=center;verticalAlign=middle;resizable=0;points=[];" parent="SWC2-Tq3VUFKpPYct_-c-16" vertex="1" connectable="0">
          <mxGeometry x="-0.6378" y="-1" relative="1" as="geometry">
            <mxPoint as="offset" />
          </mxGeometry>
        </mxCell>
        <mxCell id="QzMQ5G4TthDNWNRElYCQ-15" value="Code" style="rounded=0;whiteSpace=wrap;html=1;" parent="1" vertex="1">
          <mxGeometry x="440" y="330" width="120" height="40" as="geometry" />
        </mxCell>
        <mxCell id="SWC2-Tq3VUFKpPYct_-c-12" style="edgeStyle=orthogonalEdgeStyle;rounded=0;orthogonalLoop=1;jettySize=auto;html=1;exitX=0.5;exitY=1;exitDx=0;exitDy=0;" parent="1" source="SWC2-Tq3VUFKpPYct_-c-1" edge="1">
          <mxGeometry relative="1" as="geometry">
            <mxPoint x="419.66666666666674" y="440" as="targetPoint" />
          </mxGeometry>
        </mxCell>
        <mxCell id="SWC2-Tq3VUFKpPYct_-c-13" value="Encrypts" style="edgeLabel;html=1;align=center;verticalAlign=middle;resizable=0;points=[];" parent="SWC2-Tq3VUFKpPYct_-c-12" vertex="1" connectable="0">
          <mxGeometry x="-0.0361" y="-1" relative="1" as="geometry">
            <mxPoint as="offset" />
          </mxGeometry>
        </mxCell>
        <mxCell id="SWC2-Tq3VUFKpPYct_-c-7" value="" style="shape=tape;whiteSpace=wrap;html=1;" parent="1" vertex="1">
          <mxGeometry x="360" y="450" width="120" height="30" as="geometry" />
        </mxCell>
        <mxCell id="SWC2-Tq3VUFKpPYct_-c-8" value="Information" style="text;html=1;align=center;verticalAlign=middle;whiteSpace=wrap;rounded=0;rotation=-10;" parent="1" vertex="1">
          <mxGeometry x="390" y="450" width="60" height="30" as="geometry" />
        </mxCell>
        <mxCell id="SWC2-Tq3VUFKpPYct_-c-9" style="edgeStyle=orthogonalEdgeStyle;rounded=0;orthogonalLoop=1;jettySize=auto;html=1;exitX=0.5;exitY=1;exitDx=0;exitDy=0;" parent="1" source="QzMQ5G4TthDNWNRElYCQ-2" edge="1">
          <mxGeometry relative="1" as="geometry">
            <mxPoint x="350" y="460" as="targetPoint" />
            <Array as="points">
              <mxPoint x="240" y="460" />
            </Array>
          </mxGeometry>
        </mxCell>
        <mxCell id="SWC2-Tq3VUFKpPYct_-c-10" value="Conceals" style="edgeLabel;html=1;align=center;verticalAlign=middle;resizable=0;points=[];" parent="SWC2-Tq3VUFKpPYct_-c-9" vertex="1" connectable="0">
          <mxGeometry x="-0.5068" y="3" relative="1" as="geometry">
            <mxPoint as="offset" />
          </mxGeometry>
        </mxCell>
        <mxCell id="SWC2-Tq3VUFKpPYct_-c-20" style="edgeStyle=orthogonalEdgeStyle;rounded=0;orthogonalLoop=1;jettySize=auto;html=1;exitX=0.5;exitY=1;exitDx=0;exitDy=0;entryX=0;entryY=0.5;entryDx=0;entryDy=0;" parent="1" source="SWC2-Tq3VUFKpPYct_-c-18" target="SWC2-Tq3VUFKpPYct_-c-1" edge="1">
          <mxGeometry relative="1" as="geometry" />
        </mxCell>
        <mxCell id="SWC2-Tq3VUFKpPYct_-c-21" style="edgeStyle=orthogonalEdgeStyle;rounded=0;orthogonalLoop=1;jettySize=auto;html=1;exitX=0.5;exitY=1;exitDx=0;exitDy=0;" parent="1" source="SWC2-Tq3VUFKpPYct_-c-18" edge="1">
          <mxGeometry relative="1" as="geometry">
            <mxPoint x="350" y="460" as="targetPoint" />
            <Array as="points">
              <mxPoint x="70" y="460" />
            </Array>
          </mxGeometry>
        </mxCell>
        <mxCell id="SWC2-Tq3VUFKpPYct_-c-22" value="Reveals" style="edgeLabel;html=1;align=center;verticalAlign=middle;resizable=0;points=[];" parent="SWC2-Tq3VUFKpPYct_-c-21" vertex="1" connectable="0">
          <mxGeometry x="-0.6667" y="-1" relative="1" as="geometry">
            <mxPoint as="offset" />
          </mxGeometry>
        </mxCell>
        <mxCell id="SWC2-Tq3VUFKpPYct_-c-18" value="Steganalysis" style="rounded=0;whiteSpace=wrap;html=1;" parent="1" vertex="1">
          <mxGeometry x="10" y="130" width="120" height="40" as="geometry" />
        </mxCell>
        <mxCell id="HoWczm4bfxT611-eSuMT-1" value="Trial #1" style="ellipse;whiteSpace=wrap;html=1;aspect=fixed;fontSize=16;" vertex="1" parent="1">
          <mxGeometry x="40" y="1280" width="80" height="80" as="geometry" />
        </mxCell>
        <mxCell id="HoWczm4bfxT611-eSuMT-2" value="" style="endArrow=classic;html=1;rounded=0;fontSize=16;" edge="1" parent="1">
          <mxGeometry width="50" height="50" relative="1" as="geometry">
            <mxPoint x="120" y="1280" as="sourcePoint" />
            <mxPoint x="280" y="1160" as="targetPoint" />
          </mxGeometry>
        </mxCell>
        <mxCell id="HoWczm4bfxT611-eSuMT-3" value="" style="endArrow=classic;html=1;rounded=0;fontSize=16;" edge="1" parent="1">
          <mxGeometry width="50" height="50" relative="1" as="geometry">
            <mxPoint x="120" y="1360" as="sourcePoint" />
            <mxPoint x="280" y="1480" as="targetPoint" />
          </mxGeometry>
        </mxCell>
        <mxCell id="HoWczm4bfxT611-eSuMT-4" value="Success" style="text;html=1;align=center;verticalAlign=middle;whiteSpace=wrap;rounded=0;fontSize=16;" vertex="1" parent="1">
          <mxGeometry x="210" y="1130" width="60" height="30" as="geometry" />
        </mxCell>
        <mxCell id="HoWczm4bfxT611-eSuMT-5" value="Failure" style="text;html=1;align=center;verticalAlign=middle;whiteSpace=wrap;rounded=0;fontSize=16;" vertex="1" parent="1">
          <mxGeometry x="220" y="1480" width="60" height="30" as="geometry" />
        </mxCell>
        <mxCell id="HoWczm4bfxT611-eSuMT-6" value="p" style="text;html=1;align=center;verticalAlign=middle;whiteSpace=wrap;rounded=0;fontSize=16;" vertex="1" parent="1">
          <mxGeometry x="150" y="1210" width="30" height="30" as="geometry" />
        </mxCell>
        <mxCell id="HoWczm4bfxT611-eSuMT-7" value="(p-1)" style="text;html=1;align=center;verticalAlign=middle;whiteSpace=wrap;rounded=0;fontSize=16;" vertex="1" parent="1">
          <mxGeometry x="140" y="1410" width="40" height="30" as="geometry" />
        </mxCell>
        <mxCell id="HoWczm4bfxT611-eSuMT-15" value="Trial #2" style="ellipse;whiteSpace=wrap;html=1;aspect=fixed;fontSize=16;" vertex="1" parent="1">
          <mxGeometry x="280" y="1080" width="80" height="80" as="geometry" />
        </mxCell>
        <mxCell id="HoWczm4bfxT611-eSuMT-16" value="" style="endArrow=classic;html=1;rounded=0;fontSize=16;" edge="1" parent="1">
          <mxGeometry width="50" height="50" relative="1" as="geometry">
            <mxPoint x="360" y="1080" as="sourcePoint" />
            <mxPoint x="520" y="960" as="targetPoint" />
          </mxGeometry>
        </mxCell>
        <mxCell id="HoWczm4bfxT611-eSuMT-17" value="" style="endArrow=classic;html=1;rounded=0;fontSize=16;" edge="1" parent="1">
          <mxGeometry width="50" height="50" relative="1" as="geometry">
            <mxPoint x="360" y="1160" as="sourcePoint" />
            <mxPoint x="520" y="1200" as="targetPoint" />
          </mxGeometry>
        </mxCell>
        <mxCell id="HoWczm4bfxT611-eSuMT-18" value="Success" style="text;html=1;align=center;verticalAlign=middle;whiteSpace=wrap;rounded=0;fontSize=16;" vertex="1" parent="1">
          <mxGeometry x="440" y="940" width="60" height="30" as="geometry" />
        </mxCell>
        <mxCell id="HoWczm4bfxT611-eSuMT-19" value="Failure" style="text;html=1;align=center;verticalAlign=middle;whiteSpace=wrap;rounded=0;fontSize=16;" vertex="1" parent="1">
          <mxGeometry x="460" y="1210" width="60" height="30" as="geometry" />
        </mxCell>
        <mxCell id="HoWczm4bfxT611-eSuMT-20" value="p" style="text;html=1;align=center;verticalAlign=middle;whiteSpace=wrap;rounded=0;fontSize=16;" vertex="1" parent="1">
          <mxGeometry x="390" y="1010" width="30" height="30" as="geometry" />
        </mxCell>
        <mxCell id="HoWczm4bfxT611-eSuMT-21" value="(p-1)" style="text;html=1;align=center;verticalAlign=middle;whiteSpace=wrap;rounded=0;fontSize=16;" vertex="1" parent="1">
          <mxGeometry x="380" y="1170" width="40" height="30" as="geometry" />
        </mxCell>
        <mxCell id="HoWczm4bfxT611-eSuMT-22" value="Trial #2" style="ellipse;whiteSpace=wrap;html=1;aspect=fixed;fontSize=16;" vertex="1" parent="1">
          <mxGeometry x="280" y="1480" width="80" height="80" as="geometry" />
        </mxCell>
        <mxCell id="HoWczm4bfxT611-eSuMT-23" value="" style="endArrow=classic;html=1;rounded=0;fontSize=16;" edge="1" parent="1">
          <mxGeometry width="50" height="50" relative="1" as="geometry">
            <mxPoint x="360" y="1480" as="sourcePoint" />
            <mxPoint x="520" y="1440" as="targetPoint" />
          </mxGeometry>
        </mxCell>
        <mxCell id="HoWczm4bfxT611-eSuMT-24" value="" style="endArrow=classic;html=1;rounded=0;fontSize=16;" edge="1" parent="1">
          <mxGeometry width="50" height="50" relative="1" as="geometry">
            <mxPoint x="360" y="1560" as="sourcePoint" />
            <mxPoint x="520" y="1680" as="targetPoint" />
          </mxGeometry>
        </mxCell>
        <mxCell id="HoWczm4bfxT611-eSuMT-25" value="Success" style="text;html=1;align=center;verticalAlign=middle;whiteSpace=wrap;rounded=0;fontSize=16;" vertex="1" parent="1">
          <mxGeometry x="460" y="1410" width="60" height="30" as="geometry" />
        </mxCell>
        <mxCell id="HoWczm4bfxT611-eSuMT-26" value="Failure" style="text;html=1;align=center;verticalAlign=middle;whiteSpace=wrap;rounded=0;fontSize=16;" vertex="1" parent="1">
          <mxGeometry x="460" y="1680" width="60" height="30" as="geometry" />
        </mxCell>
        <mxCell id="HoWczm4bfxT611-eSuMT-27" value="p" style="text;html=1;align=center;verticalAlign=middle;whiteSpace=wrap;rounded=0;fontSize=16;" vertex="1" parent="1">
          <mxGeometry x="390" y="1440" width="30" height="30" as="geometry" />
        </mxCell>
        <mxCell id="HoWczm4bfxT611-eSuMT-29" value="Trial #3" style="ellipse;whiteSpace=wrap;html=1;aspect=fixed;fontSize=16;" vertex="1" parent="1">
          <mxGeometry x="520" y="1400" width="80" height="80" as="geometry" />
        </mxCell>
        <mxCell id="HoWczm4bfxT611-eSuMT-30" value="" style="endArrow=classic;html=1;rounded=0;fontSize=16;" edge="1" parent="1">
          <mxGeometry width="50" height="50" relative="1" as="geometry">
            <mxPoint x="600" y="1440" as="sourcePoint" />
            <mxPoint x="760" y="1400" as="targetPoint" />
          </mxGeometry>
        </mxCell>
        <mxCell id="HoWczm4bfxT611-eSuMT-31" value="" style="endArrow=classic;html=1;rounded=0;fontSize=16;" edge="1" parent="1">
          <mxGeometry width="50" height="50" relative="1" as="geometry">
            <mxPoint x="600" y="1440" as="sourcePoint" />
            <mxPoint x="760" y="1560" as="targetPoint" />
          </mxGeometry>
        </mxCell>
        <mxCell id="HoWczm4bfxT611-eSuMT-32" value="Success" style="text;html=1;align=center;verticalAlign=middle;whiteSpace=wrap;rounded=0;fontSize=16;" vertex="1" parent="1">
          <mxGeometry x="700" y="1370" width="60" height="30" as="geometry" />
        </mxCell>
        <mxCell id="HoWczm4bfxT611-eSuMT-33" value="Failure" style="text;html=1;align=center;verticalAlign=middle;whiteSpace=wrap;rounded=0;fontSize=16;" vertex="1" parent="1">
          <mxGeometry x="700" y="1560" width="60" height="30" as="geometry" />
        </mxCell>
        <mxCell id="HoWczm4bfxT611-eSuMT-34" value="p" style="text;html=1;align=center;verticalAlign=middle;whiteSpace=wrap;rounded=0;fontSize=16;" vertex="1" parent="1">
          <mxGeometry x="610" y="1410" width="30" height="30" as="geometry" />
        </mxCell>
        <mxCell id="HoWczm4bfxT611-eSuMT-36" value="Trial #3" style="ellipse;whiteSpace=wrap;html=1;aspect=fixed;fontSize=16;" vertex="1" parent="1">
          <mxGeometry x="520" y="1160" width="80" height="80" as="geometry" />
        </mxCell>
        <mxCell id="HoWczm4bfxT611-eSuMT-37" value="" style="endArrow=classic;html=1;rounded=0;fontSize=16;" edge="1" parent="1">
          <mxGeometry width="50" height="50" relative="1" as="geometry">
            <mxPoint x="600" y="1200" as="sourcePoint" />
            <mxPoint x="760" y="1080" as="targetPoint" />
          </mxGeometry>
        </mxCell>
        <mxCell id="HoWczm4bfxT611-eSuMT-38" value="" style="endArrow=classic;html=1;rounded=0;fontSize=16;" edge="1" parent="1">
          <mxGeometry width="50" height="50" relative="1" as="geometry">
            <mxPoint x="600" y="1200" as="sourcePoint" />
            <mxPoint x="760" y="1240" as="targetPoint" />
          </mxGeometry>
        </mxCell>
        <mxCell id="HoWczm4bfxT611-eSuMT-39" value="Success" style="text;html=1;align=center;verticalAlign=middle;whiteSpace=wrap;rounded=0;fontSize=16;" vertex="1" parent="1">
          <mxGeometry x="700" y="1060" width="60" height="30" as="geometry" />
        </mxCell>
        <mxCell id="HoWczm4bfxT611-eSuMT-40" value="Failure" style="text;html=1;align=center;verticalAlign=middle;whiteSpace=wrap;rounded=0;fontSize=16;" vertex="1" parent="1">
          <mxGeometry x="700" y="1240" width="60" height="30" as="geometry" />
        </mxCell>
        <mxCell id="HoWczm4bfxT611-eSuMT-41" value="p" style="text;html=1;align=center;verticalAlign=middle;whiteSpace=wrap;rounded=0;fontSize=16;" vertex="1" parent="1">
          <mxGeometry x="610" y="1150" width="30" height="30" as="geometry" />
        </mxCell>
        <mxCell id="HoWczm4bfxT611-eSuMT-43" value="Trial #4" style="ellipse;whiteSpace=wrap;html=1;aspect=fixed;fontSize=16;" vertex="1" parent="1">
          <mxGeometry x="760" y="1360" width="80" height="80" as="geometry" />
        </mxCell>
        <mxCell id="HoWczm4bfxT611-eSuMT-44" value="" style="endArrow=classic;html=1;rounded=0;fontSize=16;" edge="1" parent="1">
          <mxGeometry width="50" height="50" relative="1" as="geometry">
            <mxPoint x="840" y="1400" as="sourcePoint" />
            <mxPoint x="1000" y="1400" as="targetPoint" />
          </mxGeometry>
        </mxCell>
        <mxCell id="HoWczm4bfxT611-eSuMT-45" value="" style="endArrow=classic;html=1;rounded=0;fontSize=16;" edge="1" parent="1">
          <mxGeometry width="50" height="50" relative="1" as="geometry">
            <mxPoint x="840" y="1400" as="sourcePoint" />
            <mxPoint x="1000" y="1480" as="targetPoint" />
          </mxGeometry>
        </mxCell>
        <mxCell id="HoWczm4bfxT611-eSuMT-46" value="Success" style="text;html=1;align=center;verticalAlign=middle;whiteSpace=wrap;rounded=0;fontSize=16;" vertex="1" parent="1">
          <mxGeometry x="940" y="1370" width="60" height="30" as="geometry" />
        </mxCell>
        <mxCell id="HoWczm4bfxT611-eSuMT-47" value="Failure" style="text;html=1;align=center;verticalAlign=middle;whiteSpace=wrap;rounded=0;fontSize=16;" vertex="1" parent="1">
          <mxGeometry x="940" y="1480" width="60" height="30" as="geometry" />
        </mxCell>
        <mxCell id="HoWczm4bfxT611-eSuMT-48" value="p" style="text;html=1;align=center;verticalAlign=middle;whiteSpace=wrap;rounded=0;fontSize=16;" vertex="1" parent="1">
          <mxGeometry x="850" y="1370" width="30" height="30" as="geometry" />
        </mxCell>
        <mxCell id="HoWczm4bfxT611-eSuMT-50" value="Trial #4" style="ellipse;whiteSpace=wrap;html=1;aspect=fixed;fontSize=16;" vertex="1" parent="1">
          <mxGeometry x="760" y="1200" width="80" height="80" as="geometry" />
        </mxCell>
        <mxCell id="HoWczm4bfxT611-eSuMT-51" value="" style="endArrow=classic;html=1;rounded=0;fontSize=16;" edge="1" parent="1">
          <mxGeometry width="50" height="50" relative="1" as="geometry">
            <mxPoint x="840" y="1240" as="sourcePoint" />
            <mxPoint x="1000" y="1160" as="targetPoint" />
          </mxGeometry>
        </mxCell>
        <mxCell id="HoWczm4bfxT611-eSuMT-52" value="" style="endArrow=classic;html=1;rounded=0;fontSize=16;" edge="1" parent="1">
          <mxGeometry width="50" height="50" relative="1" as="geometry">
            <mxPoint x="840" y="1240" as="sourcePoint" />
            <mxPoint x="1000" y="1240" as="targetPoint" />
          </mxGeometry>
        </mxCell>
        <mxCell id="HoWczm4bfxT611-eSuMT-53" value="Success" style="text;html=1;align=center;verticalAlign=middle;whiteSpace=wrap;rounded=0;fontSize=16;" vertex="1" parent="1">
          <mxGeometry x="940" y="1130" width="60" height="30" as="geometry" />
        </mxCell>
        <mxCell id="HoWczm4bfxT611-eSuMT-54" value="Failure" style="text;html=1;align=center;verticalAlign=middle;whiteSpace=wrap;rounded=0;fontSize=16;" vertex="1" parent="1">
          <mxGeometry x="940" y="1240" width="60" height="30" as="geometry" />
        </mxCell>
        <mxCell id="HoWczm4bfxT611-eSuMT-55" value="p" style="text;html=1;align=center;verticalAlign=middle;whiteSpace=wrap;rounded=0;fontSize=16;" vertex="1" parent="1">
          <mxGeometry x="850" y="1200" width="30" height="30" as="geometry" />
        </mxCell>
        <mxCell id="HoWczm4bfxT611-eSuMT-57" value="Trial #4" style="ellipse;whiteSpace=wrap;html=1;aspect=fixed;fontSize=16;" vertex="1" parent="1">
          <mxGeometry x="760" y="1520" width="80" height="80" as="geometry" />
        </mxCell>
        <mxCell id="HoWczm4bfxT611-eSuMT-58" value="" style="endArrow=classic;html=1;rounded=0;fontSize=16;" edge="1" parent="1">
          <mxGeometry width="50" height="50" relative="1" as="geometry">
            <mxPoint x="840" y="1560" as="sourcePoint" />
            <mxPoint x="1000" y="1560" as="targetPoint" />
          </mxGeometry>
        </mxCell>
        <mxCell id="HoWczm4bfxT611-eSuMT-59" value="" style="endArrow=classic;html=1;rounded=0;fontSize=16;" edge="1" parent="1">
          <mxGeometry width="50" height="50" relative="1" as="geometry">
            <mxPoint x="840" y="1560" as="sourcePoint" />
            <mxPoint x="1000" y="1640" as="targetPoint" />
          </mxGeometry>
        </mxCell>
        <mxCell id="HoWczm4bfxT611-eSuMT-60" value="Success" style="text;html=1;align=center;verticalAlign=middle;whiteSpace=wrap;rounded=0;fontSize=16;" vertex="1" parent="1">
          <mxGeometry x="940" y="1530" width="60" height="30" as="geometry" />
        </mxCell>
        <mxCell id="HoWczm4bfxT611-eSuMT-61" value="Failure" style="text;html=1;align=center;verticalAlign=middle;whiteSpace=wrap;rounded=0;fontSize=16;" vertex="1" parent="1">
          <mxGeometry x="940" y="1640" width="60" height="30" as="geometry" />
        </mxCell>
        <mxCell id="HoWczm4bfxT611-eSuMT-62" value="p" style="text;html=1;align=center;verticalAlign=middle;whiteSpace=wrap;rounded=0;fontSize=16;" vertex="1" parent="1">
          <mxGeometry x="850" y="1530" width="30" height="30" as="geometry" />
        </mxCell>
        <mxCell id="HoWczm4bfxT611-eSuMT-64" value="Trial #4" style="ellipse;whiteSpace=wrap;html=1;aspect=fixed;fontSize=16;" vertex="1" parent="1">
          <mxGeometry x="760" y="1040" width="80" height="80" as="geometry" />
        </mxCell>
        <mxCell id="HoWczm4bfxT611-eSuMT-65" value="" style="endArrow=classic;html=1;rounded=0;fontSize=16;" edge="1" parent="1">
          <mxGeometry width="50" height="50" relative="1" as="geometry">
            <mxPoint x="840" y="1080" as="sourcePoint" />
            <mxPoint x="1000" y="1000" as="targetPoint" />
          </mxGeometry>
        </mxCell>
        <mxCell id="HoWczm4bfxT611-eSuMT-66" value="" style="endArrow=classic;html=1;rounded=0;fontSize=16;" edge="1" parent="1">
          <mxGeometry width="50" height="50" relative="1" as="geometry">
            <mxPoint x="840" y="1080" as="sourcePoint" />
            <mxPoint x="1000" y="1080" as="targetPoint" />
          </mxGeometry>
        </mxCell>
        <mxCell id="HoWczm4bfxT611-eSuMT-67" value="Success" style="text;html=1;align=center;verticalAlign=middle;whiteSpace=wrap;rounded=0;fontSize=16;" vertex="1" parent="1">
          <mxGeometry x="940" y="970" width="60" height="30" as="geometry" />
        </mxCell>
        <mxCell id="HoWczm4bfxT611-eSuMT-68" value="Failure" style="text;html=1;align=center;verticalAlign=middle;whiteSpace=wrap;rounded=0;fontSize=16;" vertex="1" parent="1">
          <mxGeometry x="940" y="1080" width="60" height="30" as="geometry" />
        </mxCell>
        <mxCell id="HoWczm4bfxT611-eSuMT-69" value="p" style="text;html=1;align=center;verticalAlign=middle;whiteSpace=wrap;rounded=0;fontSize=16;" vertex="1" parent="1">
          <mxGeometry x="850" y="1040" width="30" height="30" as="geometry" />
        </mxCell>
        <mxCell id="HoWczm4bfxT611-eSuMT-71" value="Trial #4" style="ellipse;whiteSpace=wrap;html=1;aspect=fixed;fontSize=16;" vertex="1" parent="1">
          <mxGeometry x="760" y="880" width="80" height="80" as="geometry" />
        </mxCell>
        <mxCell id="HoWczm4bfxT611-eSuMT-72" value="" style="endArrow=classic;html=1;rounded=0;fontSize=16;" edge="1" parent="1">
          <mxGeometry width="50" height="50" relative="1" as="geometry">
            <mxPoint x="840" y="920" as="sourcePoint" />
            <mxPoint x="1000" y="840" as="targetPoint" />
          </mxGeometry>
        </mxCell>
        <mxCell id="HoWczm4bfxT611-eSuMT-73" value="" style="endArrow=classic;html=1;rounded=0;fontSize=16;" edge="1" parent="1">
          <mxGeometry width="50" height="50" relative="1" as="geometry">
            <mxPoint x="840" y="920" as="sourcePoint" />
            <mxPoint x="1000" y="920" as="targetPoint" />
          </mxGeometry>
        </mxCell>
        <mxCell id="HoWczm4bfxT611-eSuMT-74" value="Success" style="text;html=1;align=center;verticalAlign=middle;whiteSpace=wrap;rounded=0;fontSize=16;" vertex="1" parent="1">
          <mxGeometry x="940" y="810" width="60" height="30" as="geometry" />
        </mxCell>
        <mxCell id="HoWczm4bfxT611-eSuMT-75" value="Failure" style="text;html=1;align=center;verticalAlign=middle;whiteSpace=wrap;rounded=0;fontSize=16;" vertex="1" parent="1">
          <mxGeometry x="940" y="920" width="60" height="30" as="geometry" />
        </mxCell>
        <mxCell id="HoWczm4bfxT611-eSuMT-76" value="p" style="text;html=1;align=center;verticalAlign=middle;whiteSpace=wrap;rounded=0;fontSize=16;" vertex="1" parent="1">
          <mxGeometry x="850" y="880" width="30" height="30" as="geometry" />
        </mxCell>
        <mxCell id="HoWczm4bfxT611-eSuMT-78" value="Trial #4" style="ellipse;whiteSpace=wrap;html=1;aspect=fixed;fontSize=16;" vertex="1" parent="1">
          <mxGeometry x="760" y="720" width="80" height="80" as="geometry" />
        </mxCell>
        <mxCell id="HoWczm4bfxT611-eSuMT-79" value="" style="endArrow=classic;html=1;rounded=0;fontSize=16;" edge="1" parent="1">
          <mxGeometry width="50" height="50" relative="1" as="geometry">
            <mxPoint x="840" y="760" as="sourcePoint" />
            <mxPoint x="1000" y="680" as="targetPoint" />
          </mxGeometry>
        </mxCell>
        <mxCell id="HoWczm4bfxT611-eSuMT-80" value="" style="endArrow=classic;html=1;rounded=0;fontSize=16;" edge="1" parent="1">
          <mxGeometry width="50" height="50" relative="1" as="geometry">
            <mxPoint x="840" y="760" as="sourcePoint" />
            <mxPoint x="1000" y="760" as="targetPoint" />
          </mxGeometry>
        </mxCell>
        <mxCell id="HoWczm4bfxT611-eSuMT-81" value="Success" style="text;html=1;align=center;verticalAlign=middle;whiteSpace=wrap;rounded=0;fontSize=16;" vertex="1" parent="1">
          <mxGeometry x="940" y="650" width="60" height="30" as="geometry" />
        </mxCell>
        <mxCell id="HoWczm4bfxT611-eSuMT-82" value="Failure" style="text;html=1;align=center;verticalAlign=middle;whiteSpace=wrap;rounded=0;fontSize=16;" vertex="1" parent="1">
          <mxGeometry x="940" y="760" width="60" height="30" as="geometry" />
        </mxCell>
        <mxCell id="HoWczm4bfxT611-eSuMT-83" value="p" style="text;html=1;align=center;verticalAlign=middle;whiteSpace=wrap;rounded=0;fontSize=16;" vertex="1" parent="1">
          <mxGeometry x="850" y="720" width="30" height="30" as="geometry" />
        </mxCell>
        <mxCell id="HoWczm4bfxT611-eSuMT-85" value="Trial #3" style="ellipse;whiteSpace=wrap;html=1;aspect=fixed;fontSize=16;" vertex="1" parent="1">
          <mxGeometry x="520" y="900" width="80" height="80" as="geometry" />
        </mxCell>
        <mxCell id="HoWczm4bfxT611-eSuMT-86" value="" style="endArrow=classic;html=1;rounded=0;entryX=0;entryY=1;entryDx=0;entryDy=0;fontSize=16;" edge="1" parent="1" target="HoWczm4bfxT611-eSuMT-78">
          <mxGeometry width="50" height="50" relative="1" as="geometry">
            <mxPoint x="600" y="940" as="sourcePoint" />
            <mxPoint x="760" y="820" as="targetPoint" />
          </mxGeometry>
        </mxCell>
        <mxCell id="HoWczm4bfxT611-eSuMT-87" value="" style="endArrow=classic;html=1;rounded=0;entryX=0;entryY=0.5;entryDx=0;entryDy=0;fontSize=16;" edge="1" parent="1" target="HoWczm4bfxT611-eSuMT-71">
          <mxGeometry width="50" height="50" relative="1" as="geometry">
            <mxPoint x="600" y="940" as="sourcePoint" />
            <mxPoint x="760" y="980" as="targetPoint" />
          </mxGeometry>
        </mxCell>
        <mxCell id="HoWczm4bfxT611-eSuMT-88" value="Success" style="text;html=1;align=center;verticalAlign=middle;whiteSpace=wrap;rounded=0;fontSize=16;" vertex="1" parent="1">
          <mxGeometry x="690" y="775" width="60" height="30" as="geometry" />
        </mxCell>
        <mxCell id="HoWczm4bfxT611-eSuMT-89" value="Failure" style="text;html=1;align=center;verticalAlign=middle;whiteSpace=wrap;rounded=0;fontSize=16;" vertex="1" parent="1">
          <mxGeometry x="700" y="925" width="60" height="30" as="geometry" />
        </mxCell>
        <mxCell id="HoWczm4bfxT611-eSuMT-90" value="p" style="text;html=1;align=center;verticalAlign=middle;whiteSpace=wrap;rounded=0;fontSize=16;" vertex="1" parent="1">
          <mxGeometry x="610" y="890" width="30" height="30" as="geometry" />
        </mxCell>
        <mxCell id="HoWczm4bfxT611-eSuMT-93" value="[&lt;font color=&quot;#1e8533&quot; style=&quot;font-size: 16px;&quot;&gt;Success&lt;/font&gt;, &lt;font color=&quot;#1e8533&quot; style=&quot;font-size: 16px;&quot;&gt;Success&lt;/font&gt;, &lt;font color=&quot;#1e8533&quot; style=&quot;font-size: 16px;&quot;&gt;Success&lt;/font&gt;, &lt;font color=&quot;#1e8533&quot; style=&quot;font-size: 16px;&quot;&gt;Success&lt;/font&gt;]&lt;br style=&quot;font-size: 16px;&quot;&gt;4 Successes, 0 Failures" style="text;html=1;align=center;verticalAlign=middle;whiteSpace=wrap;rounded=0;fontSize=16;fontStyle=1" vertex="1" parent="1">
          <mxGeometry x="1000" y="660" width="320" height="30" as="geometry" />
        </mxCell>
        <mxCell id="HoWczm4bfxT611-eSuMT-95" value="[&lt;font color=&quot;#1e8533&quot; style=&quot;font-size: 16px;&quot;&gt;Success&lt;/font&gt;, &lt;font color=&quot;#1e8533&quot; style=&quot;font-size: 16px;&quot;&gt;Success&lt;/font&gt;, &lt;font color=&quot;#1e8533&quot; style=&quot;font-size: 16px;&quot;&gt;Success&lt;/font&gt;, Failure]&lt;br style=&quot;font-size: 16px;&quot;&gt;3 Successes, 1 Failures" style="text;html=1;align=center;verticalAlign=middle;whiteSpace=wrap;rounded=0;fontSize=16;fontStyle=1" vertex="1" parent="1">
          <mxGeometry x="1000" y="745" width="310" height="30" as="geometry" />
        </mxCell>
        <mxCell id="HoWczm4bfxT611-eSuMT-96" value="[&lt;font color=&quot;#1e8533&quot; style=&quot;font-size: 16px;&quot;&gt;Success&lt;/font&gt;, &lt;font color=&quot;#1e8533&quot; style=&quot;font-size: 16px;&quot;&gt;Success&lt;/font&gt;, Failure, &lt;font color=&quot;#1e8533&quot; style=&quot;font-size: 16px;&quot;&gt;Success&lt;/font&gt;]&lt;br style=&quot;font-size: 16px;&quot;&gt;3 Successes, 1 Failures" style="text;html=1;align=center;verticalAlign=middle;whiteSpace=wrap;rounded=0;fontSize=16;fontStyle=1" vertex="1" parent="1">
          <mxGeometry x="1000" y="820" width="310" height="30" as="geometry" />
        </mxCell>
        <mxCell id="HoWczm4bfxT611-eSuMT-97" value="[&lt;font color=&quot;#1e8533&quot; style=&quot;font-size: 16px;&quot;&gt;Success&lt;/font&gt;, &lt;font color=&quot;#1e8533&quot; style=&quot;font-size: 16px;&quot;&gt;Success&lt;/font&gt;, Failure, Failure]&lt;br style=&quot;font-size: 16px;&quot;&gt;2 Successes, 2 Failures" style="text;html=1;align=center;verticalAlign=middle;whiteSpace=wrap;rounded=0;fontSize=16;fontStyle=1" vertex="1" parent="1">
          <mxGeometry x="1000" y="900" width="300" height="30" as="geometry" />
        </mxCell>
        <mxCell id="HoWczm4bfxT611-eSuMT-98" value="[&lt;font color=&quot;#1e8533&quot; style=&quot;font-size: 16px;&quot;&gt;Success&lt;/font&gt;, Failure, &lt;font color=&quot;#1e8533&quot; style=&quot;font-size: 16px;&quot;&gt;Success&lt;/font&gt;, &lt;font color=&quot;#1e8533&quot; style=&quot;font-size: 16px;&quot;&gt;Success&lt;/font&gt;]&lt;br style=&quot;font-size: 16px;&quot;&gt;3 Successes, 1 Failures" style="text;html=1;align=center;verticalAlign=middle;whiteSpace=wrap;rounded=0;fontSize=16;fontStyle=1" vertex="1" parent="1">
          <mxGeometry x="1000" y="980" width="310" height="30" as="geometry" />
        </mxCell>
        <mxCell id="HoWczm4bfxT611-eSuMT-99" value="[&lt;font color=&quot;#1e8533&quot; style=&quot;font-size: 16px;&quot;&gt;Success&lt;/font&gt;, Failure, &lt;font color=&quot;#1e8533&quot; style=&quot;font-size: 16px;&quot;&gt;Success&lt;/font&gt;, Failure]&lt;br style=&quot;font-size: 16px;&quot;&gt;2 Successes, 2 Failures" style="text;html=1;align=center;verticalAlign=middle;whiteSpace=wrap;rounded=0;fontSize=16;fontStyle=1" vertex="1" parent="1">
          <mxGeometry x="1000" y="1065" width="300" height="30" as="geometry" />
        </mxCell>
        <mxCell id="HoWczm4bfxT611-eSuMT-100" value="[&lt;font color=&quot;#1e8533&quot; style=&quot;font-size: 16px;&quot;&gt;Success&lt;/font&gt;, Failure, Failure,&amp;nbsp;&lt;span style=&quot;color: rgb(30, 133, 51); font-size: 16px;&quot;&gt;Success&lt;/span&gt;]&lt;br style=&quot;font-size: 16px;&quot;&gt;2 Successes, 2 Failures" style="text;html=1;align=center;verticalAlign=middle;whiteSpace=wrap;rounded=0;fontSize=16;fontStyle=1" vertex="1" parent="1">
          <mxGeometry x="1000" y="1140" width="310" height="30" as="geometry" />
        </mxCell>
        <mxCell id="HoWczm4bfxT611-eSuMT-101" value="[&lt;font color=&quot;#1e8533&quot; style=&quot;font-size: 16px;&quot;&gt;Success&lt;/font&gt;, Failure, Failure, Failure]&lt;br style=&quot;font-size: 16px;&quot;&gt;1 Successes, 3 Failures" style="text;html=1;align=center;verticalAlign=middle;whiteSpace=wrap;rounded=0;fontSize=16;fontStyle=1" vertex="1" parent="1">
          <mxGeometry x="1000" y="1225" width="300" height="30" as="geometry" />
        </mxCell>
        <mxCell id="HoWczm4bfxT611-eSuMT-102" value="Trial #4" style="ellipse;whiteSpace=wrap;html=1;aspect=fixed;fontSize=16;" vertex="1" parent="1">
          <mxGeometry x="760" y="1680" width="80" height="80" as="geometry" />
        </mxCell>
        <mxCell id="HoWczm4bfxT611-eSuMT-103" value="" style="endArrow=classic;html=1;rounded=0;fontSize=16;" edge="1" parent="1">
          <mxGeometry width="50" height="50" relative="1" as="geometry">
            <mxPoint x="840" y="1720" as="sourcePoint" />
            <mxPoint x="1000" y="1720" as="targetPoint" />
          </mxGeometry>
        </mxCell>
        <mxCell id="HoWczm4bfxT611-eSuMT-104" value="" style="endArrow=classic;html=1;rounded=0;fontSize=16;" edge="1" parent="1">
          <mxGeometry width="50" height="50" relative="1" as="geometry">
            <mxPoint x="840" y="1720" as="sourcePoint" />
            <mxPoint x="1000" y="1800" as="targetPoint" />
          </mxGeometry>
        </mxCell>
        <mxCell id="HoWczm4bfxT611-eSuMT-105" value="Success" style="text;html=1;align=center;verticalAlign=middle;whiteSpace=wrap;rounded=0;fontSize=16;" vertex="1" parent="1">
          <mxGeometry x="940" y="1690" width="60" height="30" as="geometry" />
        </mxCell>
        <mxCell id="HoWczm4bfxT611-eSuMT-106" value="Failure" style="text;html=1;align=center;verticalAlign=middle;whiteSpace=wrap;rounded=0;fontSize=16;" vertex="1" parent="1">
          <mxGeometry x="940" y="1800" width="60" height="30" as="geometry" />
        </mxCell>
        <mxCell id="HoWczm4bfxT611-eSuMT-107" value="p" style="text;html=1;align=center;verticalAlign=middle;whiteSpace=wrap;rounded=0;fontSize=16;" vertex="1" parent="1">
          <mxGeometry x="850" y="1690" width="30" height="30" as="geometry" />
        </mxCell>
        <mxCell id="HoWczm4bfxT611-eSuMT-109" value="Trial #4" style="ellipse;whiteSpace=wrap;html=1;aspect=fixed;fontSize=16;" vertex="1" parent="1">
          <mxGeometry x="760" y="1840" width="80" height="80" as="geometry" />
        </mxCell>
        <mxCell id="HoWczm4bfxT611-eSuMT-110" value="" style="endArrow=classic;html=1;rounded=0;fontSize=16;" edge="1" parent="1">
          <mxGeometry width="50" height="50" relative="1" as="geometry">
            <mxPoint x="840" y="1880" as="sourcePoint" />
            <mxPoint x="1000" y="1880" as="targetPoint" />
          </mxGeometry>
        </mxCell>
        <mxCell id="HoWczm4bfxT611-eSuMT-111" value="" style="endArrow=classic;html=1;rounded=0;fontSize=16;" edge="1" parent="1">
          <mxGeometry width="50" height="50" relative="1" as="geometry">
            <mxPoint x="840" y="1880" as="sourcePoint" />
            <mxPoint x="1000" y="1960" as="targetPoint" />
          </mxGeometry>
        </mxCell>
        <mxCell id="HoWczm4bfxT611-eSuMT-112" value="Success" style="text;html=1;align=center;verticalAlign=middle;whiteSpace=wrap;rounded=0;fontSize=16;" vertex="1" parent="1">
          <mxGeometry x="940" y="1850" width="60" height="30" as="geometry" />
        </mxCell>
        <mxCell id="HoWczm4bfxT611-eSuMT-113" value="Failure" style="text;html=1;align=center;verticalAlign=middle;whiteSpace=wrap;rounded=0;fontSize=16;" vertex="1" parent="1">
          <mxGeometry x="940" y="1960" width="60" height="30" as="geometry" />
        </mxCell>
        <mxCell id="HoWczm4bfxT611-eSuMT-114" value="p" style="text;html=1;align=center;verticalAlign=middle;whiteSpace=wrap;rounded=0;fontSize=16;" vertex="1" parent="1">
          <mxGeometry x="850" y="1850" width="30" height="30" as="geometry" />
        </mxCell>
        <mxCell id="HoWczm4bfxT611-eSuMT-116" value="Trial #3" style="ellipse;whiteSpace=wrap;html=1;aspect=fixed;fontSize=16;" vertex="1" parent="1">
          <mxGeometry x="520" y="1660" width="80" height="80" as="geometry" />
        </mxCell>
        <mxCell id="HoWczm4bfxT611-eSuMT-117" value="" style="endArrow=classic;html=1;rounded=0;entryX=0;entryY=0.5;entryDx=0;entryDy=0;fontSize=16;" edge="1" parent="1" target="HoWczm4bfxT611-eSuMT-102">
          <mxGeometry width="50" height="50" relative="1" as="geometry">
            <mxPoint x="600" y="1700" as="sourcePoint" />
            <mxPoint x="760" y="1660" as="targetPoint" />
          </mxGeometry>
        </mxCell>
        <mxCell id="HoWczm4bfxT611-eSuMT-118" value="" style="endArrow=classic;html=1;rounded=0;fontSize=16;" edge="1" parent="1" target="HoWczm4bfxT611-eSuMT-109">
          <mxGeometry width="50" height="50" relative="1" as="geometry">
            <mxPoint x="600" y="1700" as="sourcePoint" />
            <mxPoint x="760" y="1820" as="targetPoint" />
          </mxGeometry>
        </mxCell>
        <mxCell id="HoWczm4bfxT611-eSuMT-119" value="Success" style="text;html=1;align=center;verticalAlign=middle;whiteSpace=wrap;rounded=0;fontSize=16;" vertex="1" parent="1">
          <mxGeometry x="700" y="1685" width="60" height="30" as="geometry" />
        </mxCell>
        <mxCell id="HoWczm4bfxT611-eSuMT-120" value="Failure" style="text;html=1;align=center;verticalAlign=middle;whiteSpace=wrap;rounded=0;fontSize=16;" vertex="1" parent="1">
          <mxGeometry x="700" y="1840" width="60" height="30" as="geometry" />
        </mxCell>
        <mxCell id="HoWczm4bfxT611-eSuMT-121" value="p" style="text;html=1;align=center;verticalAlign=middle;whiteSpace=wrap;rounded=0;fontSize=16;" vertex="1" parent="1">
          <mxGeometry x="610" y="1670" width="30" height="30" as="geometry" />
        </mxCell>
        <mxCell id="HoWczm4bfxT611-eSuMT-124" value="[Failure, Failure, Failure, Failure]&lt;br style=&quot;font-size: 16px;&quot;&gt;0 Successes, 4 Failures" style="text;html=1;align=center;verticalAlign=middle;whiteSpace=wrap;rounded=0;fontSize=16;fontStyle=1" vertex="1" parent="1">
          <mxGeometry x="1000" y="1940" width="290" height="30" as="geometry" />
        </mxCell>
        <mxCell id="HoWczm4bfxT611-eSuMT-125" value="[Failure, Failure, Failure,&amp;nbsp;&lt;span style=&quot;color: rgb(30, 133, 51); font-size: 16px;&quot;&gt;Success&lt;/span&gt;]&lt;br style=&quot;font-size: 16px;&quot;&gt;1 Successes, 3 Failures" style="text;html=1;align=center;verticalAlign=middle;whiteSpace=wrap;rounded=0;fontSize=16;fontStyle=1" vertex="1" parent="1">
          <mxGeometry x="1000" y="1865" width="300" height="30" as="geometry" />
        </mxCell>
        <mxCell id="HoWczm4bfxT611-eSuMT-126" value="[Failure, Failure,&amp;nbsp;&lt;span style=&quot;color: rgb(30, 133, 51); font-size: 16px;&quot;&gt;Success,&amp;nbsp;&lt;/span&gt;Failure]&lt;br style=&quot;font-size: 16px;&quot;&gt;1 Successes, 3 Failures" style="text;html=1;align=center;verticalAlign=middle;whiteSpace=wrap;rounded=0;fontSize=16;fontStyle=1" vertex="1" parent="1">
          <mxGeometry x="1000" y="1780" width="300" height="30" as="geometry" />
        </mxCell>
        <mxCell id="HoWczm4bfxT611-eSuMT-127" value="[Failure, Failure,&amp;nbsp;&lt;span style=&quot;color: rgb(30, 133, 51); font-size: 16px;&quot;&gt;Success,&amp;nbsp;&lt;/span&gt;&lt;span style=&quot;color: rgb(30, 133, 51); font-size: 16px;&quot;&gt;Success&lt;/span&gt;]&lt;br style=&quot;font-size: 16px;&quot;&gt;2 Successes, 2 Failures" style="text;html=1;align=center;verticalAlign=middle;whiteSpace=wrap;rounded=0;fontSize=16;fontStyle=1" vertex="1" parent="1">
          <mxGeometry x="1000" y="1700" width="310" height="30" as="geometry" />
        </mxCell>
        <mxCell id="HoWczm4bfxT611-eSuMT-128" value="[Failure,&amp;nbsp;&lt;span style=&quot;color: rgb(30, 133, 51); font-size: 16px;&quot;&gt;Success&lt;/span&gt;, Failure&lt;span style=&quot;color: rgb(30, 133, 51); font-size: 16px;&quot;&gt;,&amp;nbsp;&lt;/span&gt;Failure]&lt;br style=&quot;font-size: 16px;&quot;&gt;1 Successes, 3 Failures" style="text;html=1;align=center;verticalAlign=middle;whiteSpace=wrap;rounded=0;fontSize=16;fontStyle=1" vertex="1" parent="1">
          <mxGeometry x="1000" y="1620" width="300" height="30" as="geometry" />
        </mxCell>
        <mxCell id="HoWczm4bfxT611-eSuMT-129" value="[Failure,&amp;nbsp;&lt;span style=&quot;color: rgb(30, 133, 51); font-size: 16px;&quot;&gt;Success&lt;/span&gt;,&amp;nbsp;&lt;span style=&quot;color: rgb(30, 133, 51); font-size: 16px;&quot;&gt;Success,&amp;nbsp;&lt;/span&gt;Failure]&lt;br style=&quot;font-size: 16px;&quot;&gt;2 Successes, 2 Failures" style="text;html=1;align=center;verticalAlign=middle;whiteSpace=wrap;rounded=0;fontSize=16;fontStyle=1" vertex="1" parent="1">
          <mxGeometry x="1000" y="1460" width="310" height="30" as="geometry" />
        </mxCell>
        <mxCell id="HoWczm4bfxT611-eSuMT-130" value="[Failure,&amp;nbsp;&lt;span style=&quot;color: rgb(30, 133, 51); font-size: 16px;&quot;&gt;Success&lt;/span&gt;,&amp;nbsp;Failure,&amp;nbsp;&lt;span style=&quot;color: rgb(30, 133, 51); font-size: 16px;&quot;&gt;Success&lt;/span&gt;]&lt;br style=&quot;font-size: 16px;&quot;&gt;2 Successes, 2 Failures" style="text;html=1;align=center;verticalAlign=middle;whiteSpace=wrap;rounded=0;fontSize=16;fontStyle=1" vertex="1" parent="1">
          <mxGeometry x="1000" y="1545" width="310" height="30" as="geometry" />
        </mxCell>
        <mxCell id="HoWczm4bfxT611-eSuMT-131" value="[Failure,&amp;nbsp;&lt;span style=&quot;color: rgb(30, 133, 51); font-size: 16px;&quot;&gt;Success&lt;/span&gt;,&amp;nbsp;&lt;span style=&quot;color: rgb(30, 133, 51); font-size: 16px;&quot;&gt;Success,&amp;nbsp;&lt;/span&gt;&lt;span style=&quot;color: rgb(30, 133, 51); font-size: 16px;&quot;&gt;Success&lt;/span&gt;]&lt;br style=&quot;font-size: 16px;&quot;&gt;3 Successes, 1 Failures" style="text;html=1;align=center;verticalAlign=middle;whiteSpace=wrap;rounded=0;fontSize=16;fontStyle=1" vertex="1" parent="1">
          <mxGeometry x="1000" y="1385" width="320" height="30" as="geometry" />
        </mxCell>
        <mxCell id="HoWczm4bfxT611-eSuMT-133" value="(p-1)" style="text;html=1;align=center;verticalAlign=middle;whiteSpace=wrap;rounded=0;fontSize=16;" vertex="1" parent="1">
          <mxGeometry x="350" y="1580" width="40" height="30" as="geometry" />
        </mxCell>
        <mxCell id="HoWczm4bfxT611-eSuMT-134" value="(p-1)" style="text;html=1;align=center;verticalAlign=middle;whiteSpace=wrap;rounded=0;fontSize=16;" vertex="1" parent="1">
          <mxGeometry x="605" y="950" width="40" height="30" as="geometry" />
        </mxCell>
        <mxCell id="HoWczm4bfxT611-eSuMT-135" value="(p-1)" style="text;html=1;align=center;verticalAlign=middle;whiteSpace=wrap;rounded=0;fontSize=16;" vertex="1" parent="1">
          <mxGeometry x="600" y="1210" width="40" height="30" as="geometry" />
        </mxCell>
        <mxCell id="HoWczm4bfxT611-eSuMT-137" value="(p-1)" style="text;html=1;align=center;verticalAlign=middle;whiteSpace=wrap;rounded=0;fontSize=16;" vertex="1" parent="1">
          <mxGeometry x="600" y="1470" width="40" height="30" as="geometry" />
        </mxCell>
        <mxCell id="HoWczm4bfxT611-eSuMT-138" value="(p-1)" style="text;html=1;align=center;verticalAlign=middle;whiteSpace=wrap;rounded=0;fontSize=16;" vertex="1" parent="1">
          <mxGeometry x="600" y="1740" width="40" height="30" as="geometry" />
        </mxCell>
        <mxCell id="HoWczm4bfxT611-eSuMT-139" value="(p-1)" style="text;html=1;align=center;verticalAlign=middle;whiteSpace=wrap;rounded=0;fontSize=16;" vertex="1" parent="1">
          <mxGeometry x="850" y="760" width="40" height="30" as="geometry" />
        </mxCell>
        <mxCell id="HoWczm4bfxT611-eSuMT-140" value="(p-1)" style="text;html=1;align=center;verticalAlign=middle;whiteSpace=wrap;rounded=0;fontSize=16;" vertex="1" parent="1">
          <mxGeometry x="850" y="925" width="40" height="30" as="geometry" />
        </mxCell>
        <mxCell id="HoWczm4bfxT611-eSuMT-141" value="(p-1)" style="text;html=1;align=center;verticalAlign=middle;whiteSpace=wrap;rounded=0;fontSize=16;" vertex="1" parent="1">
          <mxGeometry x="850" y="1090" width="40" height="30" as="geometry" />
        </mxCell>
        <mxCell id="HoWczm4bfxT611-eSuMT-142" value="(p-1)" style="text;html=1;align=center;verticalAlign=middle;whiteSpace=wrap;rounded=0;fontSize=16;" vertex="1" parent="1">
          <mxGeometry x="845" y="1250" width="40" height="30" as="geometry" />
        </mxCell>
        <mxCell id="HoWczm4bfxT611-eSuMT-143" value="(p-1)" style="text;html=1;align=center;verticalAlign=middle;whiteSpace=wrap;rounded=0;fontSize=16;" vertex="1" parent="1">
          <mxGeometry x="850" y="1423" width="40" height="30" as="geometry" />
        </mxCell>
        <mxCell id="HoWczm4bfxT611-eSuMT-144" value="(p-1)" style="text;html=1;align=center;verticalAlign=middle;whiteSpace=wrap;rounded=0;fontSize=16;" vertex="1" parent="1">
          <mxGeometry x="845" y="1580" width="40" height="30" as="geometry" />
        </mxCell>
        <mxCell id="HoWczm4bfxT611-eSuMT-145" value="(p-1)" style="text;html=1;align=center;verticalAlign=middle;whiteSpace=wrap;rounded=0;fontSize=16;" vertex="1" parent="1">
          <mxGeometry x="840" y="1740" width="40" height="30" as="geometry" />
        </mxCell>
        <mxCell id="HoWczm4bfxT611-eSuMT-146" value="(p-1)" style="text;html=1;align=center;verticalAlign=middle;whiteSpace=wrap;rounded=0;fontSize=16;" vertex="1" parent="1">
          <mxGeometry x="845" y="1910" width="40" height="30" as="geometry" />
        </mxCell>
        <mxCell id="HoWczm4bfxT611-eSuMT-147" value="" style="endArrow=classic;html=1;rounded=0;" edge="1" parent="1">
          <mxGeometry width="50" height="50" relative="1" as="geometry">
            <mxPoint x="75" y="1905" as="sourcePoint" />
            <mxPoint x="75" y="1625" as="targetPoint" />
          </mxGeometry>
        </mxCell>
        <mxCell id="HoWczm4bfxT611-eSuMT-148" value="" style="endArrow=classic;html=1;rounded=0;" edge="1" parent="1">
          <mxGeometry width="50" height="50" relative="1" as="geometry">
            <mxPoint x="75" y="1905" as="sourcePoint" />
            <mxPoint x="335" y="1905" as="targetPoint" />
          </mxGeometry>
        </mxCell>
        <mxCell id="HoWczm4bfxT611-eSuMT-151" value="1" style="text;html=1;align=center;verticalAlign=middle;whiteSpace=wrap;rounded=0;" vertex="1" parent="1">
          <mxGeometry x="55" y="1845" width="20" height="30" as="geometry" />
        </mxCell>
        <mxCell id="HoWczm4bfxT611-eSuMT-152" value="2" style="text;html=1;align=center;verticalAlign=middle;whiteSpace=wrap;rounded=0;" vertex="1" parent="1">
          <mxGeometry x="55" y="1805" width="20" height="30" as="geometry" />
        </mxCell>
        <mxCell id="HoWczm4bfxT611-eSuMT-153" value="3" style="text;html=1;align=center;verticalAlign=middle;whiteSpace=wrap;rounded=0;" vertex="1" parent="1">
          <mxGeometry x="55" y="1765" width="20" height="30" as="geometry" />
        </mxCell>
        <mxCell id="HoWczm4bfxT611-eSuMT-154" value="4" style="text;html=1;align=center;verticalAlign=middle;whiteSpace=wrap;rounded=0;" vertex="1" parent="1">
          <mxGeometry x="55" y="1725" width="20" height="30" as="geometry" />
        </mxCell>
        <mxCell id="HoWczm4bfxT611-eSuMT-155" value="Number of Successes" style="text;html=1;align=center;verticalAlign=middle;whiteSpace=wrap;rounded=0;rotation=0;" vertex="1" parent="1">
          <mxGeometry x="116" y="1935" width="130" height="30" as="geometry" />
        </mxCell>
        <mxCell id="HoWczm4bfxT611-eSuMT-156" value="5" style="text;html=1;align=center;verticalAlign=middle;whiteSpace=wrap;rounded=0;" vertex="1" parent="1">
          <mxGeometry x="55" y="1685" width="20" height="30" as="geometry" />
        </mxCell>
        <mxCell id="HoWczm4bfxT611-eSuMT-159" value="6" style="text;html=1;align=center;verticalAlign=middle;whiteSpace=wrap;rounded=0;" vertex="1" parent="1">
          <mxGeometry x="55" y="1644" width="20" height="30" as="geometry" />
        </mxCell>
        <mxCell id="HoWczm4bfxT611-eSuMT-162" value="Occurrence" style="text;html=1;align=center;verticalAlign=middle;whiteSpace=wrap;rounded=0;rotation=-90;" vertex="1" parent="1">
          <mxGeometry x="-15" y="1745" width="110" height="30" as="geometry" />
        </mxCell>
        <mxCell id="HoWczm4bfxT611-eSuMT-163" value="0" style="text;html=1;align=center;verticalAlign=middle;whiteSpace=wrap;rounded=0;" vertex="1" parent="1">
          <mxGeometry x="76" y="1905" width="40" height="30" as="geometry" />
        </mxCell>
        <mxCell id="HoWczm4bfxT611-eSuMT-164" value="1" style="text;html=1;align=center;verticalAlign=middle;whiteSpace=wrap;rounded=0;" vertex="1" parent="1">
          <mxGeometry x="116" y="1905" width="40" height="30" as="geometry" />
        </mxCell>
        <mxCell id="HoWczm4bfxT611-eSuMT-165" value="2" style="text;html=1;align=center;verticalAlign=middle;whiteSpace=wrap;rounded=0;" vertex="1" parent="1">
          <mxGeometry x="156" y="1905" width="40" height="30" as="geometry" />
        </mxCell>
        <mxCell id="HoWczm4bfxT611-eSuMT-166" value="3" style="text;html=1;align=center;verticalAlign=middle;whiteSpace=wrap;rounded=0;" vertex="1" parent="1">
          <mxGeometry x="196" y="1905" width="40" height="30" as="geometry" />
        </mxCell>
        <mxCell id="HoWczm4bfxT611-eSuMT-167" value="4" style="text;html=1;align=center;verticalAlign=middle;whiteSpace=wrap;rounded=0;" vertex="1" parent="1">
          <mxGeometry x="236" y="1905" width="40" height="30" as="geometry" />
        </mxCell>
        <mxCell id="HoWczm4bfxT611-eSuMT-168" value="" style="rounded=0;whiteSpace=wrap;html=1;fillColor=#1E8533;" vertex="1" parent="1">
          <mxGeometry x="76" y="1865" width="39" height="40" as="geometry" />
        </mxCell>
        <mxCell id="HoWczm4bfxT611-eSuMT-170" value="" style="rounded=0;whiteSpace=wrap;html=1;fillColor=#1E8533;" vertex="1" parent="1">
          <mxGeometry x="155" y="1665" width="39" height="240" as="geometry" />
        </mxCell>
        <mxCell id="HoWczm4bfxT611-eSuMT-171" value="" style="rounded=0;whiteSpace=wrap;html=1;fillColor=#1E8533;" vertex="1" parent="1">
          <mxGeometry x="116" y="1745" width="39" height="160" as="geometry" />
        </mxCell>
        <mxCell id="HoWczm4bfxT611-eSuMT-172" value="" style="rounded=0;whiteSpace=wrap;html=1;fillColor=#1E8533;" vertex="1" parent="1">
          <mxGeometry x="234" y="1865" width="39" height="40" as="geometry" />
        </mxCell>
        <mxCell id="HoWczm4bfxT611-eSuMT-173" value="" style="rounded=0;whiteSpace=wrap;html=1;fillColor=#1E8533;" vertex="1" parent="1">
          <mxGeometry x="194" y="1745" width="39" height="160" as="geometry" />
        </mxCell>
        <mxCell id="HoWczm4bfxT611-eSuMT-174" value="" style="endArrow=classic;html=1;rounded=0;" edge="1" parent="1">
          <mxGeometry width="50" height="50" relative="1" as="geometry">
            <mxPoint x="80" y="840" as="sourcePoint" />
            <mxPoint x="80" y="720" as="targetPoint" />
          </mxGeometry>
        </mxCell>
        <mxCell id="HoWczm4bfxT611-eSuMT-175" value="" style="endArrow=classic;html=1;rounded=0;" edge="1" parent="1">
          <mxGeometry width="50" height="50" relative="1" as="geometry">
            <mxPoint x="80" y="840" as="sourcePoint" />
            <mxPoint x="420" y="840" as="targetPoint" />
          </mxGeometry>
        </mxCell>
        <mxCell id="HoWczm4bfxT611-eSuMT-178" value="" style="curved=1;endArrow=none;html=1;rounded=0;endFill=0;" edge="1" parent="1">
          <mxGeometry width="50" height="50" relative="1" as="geometry">
            <mxPoint x="410" y="830" as="sourcePoint" />
            <mxPoint x="95" y="825" as="targetPoint" />
            <Array as="points">
              <mxPoint x="260" y="810" />
              <mxPoint x="110" y="690" />
            </Array>
          </mxGeometry>
        </mxCell>
        <mxCell id="HoWczm4bfxT611-eSuMT-180" value="" style="shape=flexArrow;endArrow=classic;html=1;rounded=0;" edge="1" parent="1">
          <mxGeometry width="50" height="50" relative="1" as="geometry">
            <mxPoint x="260" y="774.43" as="sourcePoint" />
            <mxPoint x="330" y="774.43" as="targetPoint" />
          </mxGeometry>
        </mxCell>
        <mxCell id="HoWczm4bfxT611-eSuMT-181" value="Skewed" style="edgeLabel;html=1;align=center;verticalAlign=middle;resizable=0;points=[];fontSize=8;labelBackgroundColor=none;" vertex="1" connectable="0" parent="HoWczm4bfxT611-eSuMT-180">
          <mxGeometry x="0.4449" y="-4" relative="1" as="geometry">
            <mxPoint x="-25" y="-4" as="offset" />
          </mxGeometry>
        </mxCell>
        <mxCell id="HoWczm4bfxT611-eSuMT-182" value="" style="endArrow=none;html=1;rounded=0;fillColor=#f8cecc;strokeColor=#b85450;" edge="1" parent="1">
          <mxGeometry width="50" height="50" relative="1" as="geometry">
            <mxPoint x="143" y="820" as="sourcePoint" />
            <mxPoint x="143" y="731" as="targetPoint" />
          </mxGeometry>
        </mxCell>
        <mxCell id="HoWczm4bfxT611-eSuMT-183" value="Mode" style="text;html=1;align=center;verticalAlign=middle;whiteSpace=wrap;rounded=0;fontSize=8;" vertex="1" parent="1">
          <mxGeometry x="117" y="806" width="25" height="20" as="geometry" />
        </mxCell>
        <mxCell id="HoWczm4bfxT611-eSuMT-185" value="" style="endArrow=none;html=1;rounded=0;fillColor=#dae8fc;strokeColor=#6c8ebf;" edge="1" parent="1">
          <mxGeometry width="50" height="50" relative="1" as="geometry">
            <mxPoint x="174" y="820" as="sourcePoint" />
            <mxPoint x="174.21" y="742" as="targetPoint" />
          </mxGeometry>
        </mxCell>
        <mxCell id="HoWczm4bfxT611-eSuMT-186" value="Median" style="text;html=1;align=center;verticalAlign=middle;whiteSpace=wrap;rounded=0;fontSize=8;" vertex="1" parent="1">
          <mxGeometry x="146.5" y="806" width="25" height="20" as="geometry" />
        </mxCell>
        <mxCell id="HoWczm4bfxT611-eSuMT-187" value="Mean" style="text;html=1;align=center;verticalAlign=middle;whiteSpace=wrap;rounded=0;fontSize=8;" vertex="1" parent="1">
          <mxGeometry x="177" y="808" width="25" height="15" as="geometry" />
        </mxCell>
        <mxCell id="HoWczm4bfxT611-eSuMT-188" value="" style="endArrow=none;html=1;rounded=0;fillColor=#e1d5e7;strokeColor=#9673a6;" edge="1" parent="1">
          <mxGeometry width="50" height="50" relative="1" as="geometry">
            <mxPoint x="201" y="820" as="sourcePoint" />
            <mxPoint x="200.71" y="761" as="targetPoint" />
          </mxGeometry>
        </mxCell>
        <mxCell id="HoWczm4bfxT611-eSuMT-217" value="" style="rounded=0;whiteSpace=wrap;html=1;" vertex="1" parent="1">
          <mxGeometry x="130" y="520" width="103.5" height="60" as="geometry" />
        </mxCell>
        <mxCell id="HoWczm4bfxT611-eSuMT-218" value="" style="endArrow=none;html=1;rounded=0;" edge="1" parent="1">
          <mxGeometry width="50" height="50" relative="1" as="geometry">
            <mxPoint x="90" y="550" as="sourcePoint" />
            <mxPoint x="130" y="550" as="targetPoint" />
          </mxGeometry>
        </mxCell>
        <mxCell id="HoWczm4bfxT611-eSuMT-219" value="" style="endArrow=none;html=1;rounded=0;" edge="1" parent="1">
          <mxGeometry width="50" height="50" relative="1" as="geometry">
            <mxPoint x="89.5" y="570" as="sourcePoint" />
            <mxPoint x="89.5" y="530" as="targetPoint" />
          </mxGeometry>
        </mxCell>
        <mxCell id="HoWczm4bfxT611-eSuMT-221" value="" style="endArrow=none;html=1;rounded=0;" edge="1" parent="1">
          <mxGeometry width="50" height="50" relative="1" as="geometry">
            <mxPoint x="233.5" y="550" as="sourcePoint" />
            <mxPoint x="303.5" y="550" as="targetPoint" />
          </mxGeometry>
        </mxCell>
        <mxCell id="HoWczm4bfxT611-eSuMT-222" value="" style="endArrow=none;html=1;rounded=0;" edge="1" parent="1">
          <mxGeometry width="50" height="50" relative="1" as="geometry">
            <mxPoint x="303.3" y="570" as="sourcePoint" />
            <mxPoint x="303.3" y="530" as="targetPoint" />
          </mxGeometry>
        </mxCell>
        <mxCell id="HoWczm4bfxT611-eSuMT-223" value="" style="ellipse;whiteSpace=wrap;html=1;aspect=fixed;fillColor=#050505;" vertex="1" parent="1">
          <mxGeometry x="363.5" y="545" width="10" height="10" as="geometry" />
        </mxCell>
        <mxCell id="HoWczm4bfxT611-eSuMT-224" value="" style="endArrow=classic;html=1;rounded=0;" edge="1" parent="1">
          <mxGeometry width="50" height="50" relative="1" as="geometry">
            <mxPoint x="129.6" y="620" as="sourcePoint" />
            <mxPoint x="129.6" y="590" as="targetPoint" />
          </mxGeometry>
        </mxCell>
        <mxCell id="HoWczm4bfxT611-eSuMT-225" value="Q" style="text;html=1;align=center;verticalAlign=middle;whiteSpace=wrap;rounded=0;" vertex="1" parent="1">
          <mxGeometry x="119.5" y="620" width="20" height="20" as="geometry" />
        </mxCell>
        <mxCell id="HoWczm4bfxT611-eSuMT-226" value="1" style="text;html=1;align=center;verticalAlign=middle;whiteSpace=wrap;rounded=0;fontSize=8;" vertex="1" parent="1">
          <mxGeometry x="131.5" y="626" width="10" height="20" as="geometry" />
        </mxCell>
        <mxCell id="HoWczm4bfxT611-eSuMT-227" value="" style="endArrow=none;html=1;rounded=0;" edge="1" parent="1">
          <mxGeometry width="50" height="50" relative="1" as="geometry">
            <mxPoint x="171.8" y="580" as="sourcePoint" />
            <mxPoint x="171.8" y="520" as="targetPoint" />
          </mxGeometry>
        </mxCell>
        <mxCell id="HoWczm4bfxT611-eSuMT-228" value="" style="endArrow=classic;html=1;rounded=0;" edge="1" parent="1">
          <mxGeometry width="50" height="50" relative="1" as="geometry">
            <mxPoint x="172.1" y="620" as="sourcePoint" />
            <mxPoint x="172.1" y="590" as="targetPoint" />
          </mxGeometry>
        </mxCell>
        <mxCell id="HoWczm4bfxT611-eSuMT-229" value="Q" style="text;html=1;align=center;verticalAlign=middle;whiteSpace=wrap;rounded=0;" vertex="1" parent="1">
          <mxGeometry x="162" y="620" width="20" height="20" as="geometry" />
        </mxCell>
        <mxCell id="HoWczm4bfxT611-eSuMT-230" value="2" style="text;html=1;align=center;verticalAlign=middle;whiteSpace=wrap;rounded=0;fontSize=8;" vertex="1" parent="1">
          <mxGeometry x="174" y="626" width="10" height="20" as="geometry" />
        </mxCell>
        <mxCell id="HoWczm4bfxT611-eSuMT-231" value="(Median)" style="text;html=1;align=center;verticalAlign=middle;whiteSpace=wrap;rounded=0;fontSize=7;" vertex="1" parent="1">
          <mxGeometry x="162" y="640" width="25.25" height="10" as="geometry" />
        </mxCell>
        <mxCell id="HoWczm4bfxT611-eSuMT-232" value="" style="endArrow=classic;html=1;rounded=0;" edge="1" parent="1">
          <mxGeometry width="50" height="50" relative="1" as="geometry">
            <mxPoint x="232.6" y="620" as="sourcePoint" />
            <mxPoint x="232.6" y="590" as="targetPoint" />
          </mxGeometry>
        </mxCell>
        <mxCell id="HoWczm4bfxT611-eSuMT-233" value="Q" style="text;html=1;align=center;verticalAlign=middle;whiteSpace=wrap;rounded=0;" vertex="1" parent="1">
          <mxGeometry x="222.5" y="620" width="20" height="20" as="geometry" />
        </mxCell>
        <mxCell id="HoWczm4bfxT611-eSuMT-234" value="3" style="text;html=1;align=center;verticalAlign=middle;whiteSpace=wrap;rounded=0;fontSize=8;" vertex="1" parent="1">
          <mxGeometry x="234.5" y="626" width="10" height="20" as="geometry" />
        </mxCell>
        <mxCell id="HoWczm4bfxT611-eSuMT-235" value="" style="endArrow=classic;html=1;rounded=0;" edge="1" parent="1">
          <mxGeometry width="50" height="50" relative="1" as="geometry">
            <mxPoint x="89.6" y="620" as="sourcePoint" />
            <mxPoint x="89.6" y="590" as="targetPoint" />
          </mxGeometry>
        </mxCell>
        <mxCell id="HoWczm4bfxT611-eSuMT-236" value="Min" style="text;html=1;align=center;verticalAlign=middle;whiteSpace=wrap;rounded=0;" vertex="1" parent="1">
          <mxGeometry x="79.5" y="620" width="20" height="20" as="geometry" />
        </mxCell>
        <mxCell id="HoWczm4bfxT611-eSuMT-237" value="" style="endArrow=classic;html=1;rounded=0;" edge="1" parent="1">
          <mxGeometry width="50" height="50" relative="1" as="geometry">
            <mxPoint x="303.6" y="620" as="sourcePoint" />
            <mxPoint x="303.6" y="590" as="targetPoint" />
          </mxGeometry>
        </mxCell>
        <mxCell id="HoWczm4bfxT611-eSuMT-238" value="Max" style="text;html=1;align=center;verticalAlign=middle;whiteSpace=wrap;rounded=0;" vertex="1" parent="1">
          <mxGeometry x="293.5" y="620" width="20" height="20" as="geometry" />
        </mxCell>
        <mxCell id="HoWczm4bfxT611-eSuMT-239" value="" style="endArrow=classic;html=1;rounded=0;" edge="1" parent="1">
          <mxGeometry width="50" height="50" relative="1" as="geometry">
            <mxPoint x="368.6" y="620" as="sourcePoint" />
            <mxPoint x="368.6" y="590" as="targetPoint" />
          </mxGeometry>
        </mxCell>
        <mxCell id="HoWczm4bfxT611-eSuMT-240" value="(Outlier)" style="text;html=1;align=center;verticalAlign=middle;whiteSpace=wrap;rounded=0;" vertex="1" parent="1">
          <mxGeometry x="342.75" y="620" width="51.5" height="20" as="geometry" />
        </mxCell>
      </root>
    </mxGraphModel>
  </diagram>
</mxfile>
